<?xml version="1.0" encoding="UTF-8"?>
<svg id="Capa_1" data-name="Capa 1" xmlns="http://www.w3.org/2000/svg" viewBox="0 0 1080 142.5">
  <defs>
    <style>
      .cls-1 {
        fill: #dd6610;
      }

      .cls-2 {
        fill: #485157;
      }
    </style>
  </defs>
  <path class="cls-2" d="M428.13,95.85l-23.14-23.14c-.81-.81-2.41-1.48-3.55-1.48h-8.79c-.63,0-1.18-.18-1.63-.54-.36-.45-.54-.99-.54-1.63,0-.54,.18-1.03,.54-1.49l.45-.46c.65-.13,2.12-.23,3.26-.23h12.26c.27,.05,.55,.08,.85,.08h8.73c1.18,0,2.17-.45,2.98-1.35,.91-.81,1.36-1.81,1.36-2.99v-26.18c0-1.27-.45-2.3-1.36-3.12-.81-.81-1.81-1.22-2.98-1.22h-8.73s-.01,0-.01,0h-52.09v.05h-8.66c-1.27,0-2.31,.4-3.12,1.22-.82,.82-1.22,1.85-1.22,3.12v11.68h0v43.83h0v14.03c0,1.17,.4,2.17,1.22,2.98,.81,.9,1.85,1.36,3.12,1.36h8.68c1.17,0,2.17-.45,2.98-1.36,.9-.81,1.36-1.81,1.36-2.98v-10.45h.03v-9.22c0-1.15-.67-2.75-1.48-3.56l-3.57-3.58c-.81-.81-.98-1.96-.38-2.56,.6-.6,1.93-.67,2.95-.15l4.97,2.48c1.02,.51,2.8,.93,3.95,.93h17.49c1.14,0,2.75,.66,3.55,1.48l27.49,27.49c.81,.81,2.41,1.47,3.55,1.47h6.62c1.17,0,2.17-.4,2.99-1.23,.9-.82,.96-1.08,.96-1.08,.22-1.12,.4-2.98,.4-4.12v-4.53c0-1.15-.66-2.75-1.47-3.56m-61.58-33.31c-1.15,0-2.92,.41-3.95,.93l-4.97,2.49c-1.02,.51-2.35,.44-2.95-.16-.6-.6-.42-1.75,.38-2.56l3.58-3.57c.81-.82,1.47-2.42,1.47-3.56v-.17c0-1.15-.67-2.75-1.47-3.56l-3.58-3.58c-.81-.81-.98-1.97-.38-2.56,.6-.6,1.93-.67,2.95-.16l4.97,2.48c1.02,.52,2.8,.94,3.95,.94h30.54c1.14,0,2.92-.42,3.95-.94l2.45-1.23,2.51-1.25c1.03-.51,2.35-.45,2.95,.16,.59,.59,.42,1.75-.39,2.56l-3.57,3.58c-.81,.81-1.47,2.41-1.47,3.56v2.26c0,.17-.01,.35-.03,.52-.1,1.03-.55,1.9-1.33,2.6-.81,.81-.94,.84-.94,.84-1.12,.21-2.99,.39-4.13,.39h-30.54Z"/>
  <path class="cls-2" d="M99.58,33.34c-.81-.82-1.85-1.23-3.12-1.23h-8.68c-1.17,0-2.17,.41-2.98,1.23-.91,.81-1.36,1.86-1.36,3.12v18.72c0,1.67,.97,4.02,2.15,5.21l2.21,2.2c1.18,1.2,1.66,2.65,1.07,3.25-.6,.6-2.31,.47-3.81-.27l-3.24-1.62c-1.5-.75-4.09-1.36-5.76-1.36H38.73c-1.67,0-4.27,.61-5.77,1.36l-3.23,1.62c-1.5,.74-3.21,.87-3.81,.27-.6-.6-.12-2.05,1.07-3.25l2.21-2.2c1.18-1.19,2.15-3.54,2.15-5.21v-18.72c0-1.26-.45-2.31-1.35-3.12-.81-.82-1.81-1.23-2.99-1.23h-8.68c-1.26,0-2.31,.41-3.12,1.23-.81,.81-1.21,1.86-1.21,3.12v56.55h0v13.11c0,.24,.02,.47,.06,.71,.03,.17,.07,.33,.11,.48,0,.02,.01,.06,.02,.07,.19,.64,.52,1.22,1.02,1.73,.81,.9,1.86,1.35,3.12,1.35h8.68c1.27,0,2.31-.45,3.12-1.35,.5-.51,.83-1.09,1.02-1.73,0-.02,.01-.05,.02-.08,.05-.15,.09-.32,.12-.48,.04-.23,.06-.47,.06-.71v-18.72c0-.74-.19-1.6-.49-2.43-.4-1.08-.99-2.11-1.65-2.78l-2.21-2.21c-.74-.74-1.2-1.59-1.3-2.27-.06-.41,.02-.75,.24-.97,.23-.23,.6-.36,1.07-.38,.78-.05,1.8,.18,2.74,.65l3.23,1.63c1.5,.74,4.09,1.36,5.77,1.36h37.32c1.67,0,4.27-.62,5.76-1.36l3.24-1.63c.94-.47,1.95-.7,2.73-.65,.47,.03,.85,.15,1.07,.38,.23,.22,.29,.56,.24,.97-.1,.68-.56,1.53-1.31,2.27l-2.21,2.21c-.66,.67-1.25,1.7-1.65,2.78-.31,.84-.5,1.7-.5,2.43v18.72c0,.24,.02,.47,.06,.71,.02,.17,.07,.33,.11,.48,.01,.02,.02,.06,.03,.07,.19,.64,.52,1.22,1.02,1.73,.81,.9,1.86,1.35,3.12,1.35h8.68c1.27,0,2.3-.45,3.12-1.35,.5-.51,.83-1.09,1.02-1.73,0-.02,.01-.05,.02-.07,.05-.16,.08-.31,.11-.48,.04-.23,.06-.47,.06-.71v-13.09h0V36.46c0-1.26-.4-2.31-1.22-3.12"/>
  <path class="cls-1" d="M130.88,36.45c0-1.27-.45-2.3-1.36-3.11-.82-.82-1.81-1.23-2.98-1.23h-8.68c-1.27,0-2.3,.41-3.12,1.23-.81,.81-1.22,1.84-1.22,3.11v6.62c0,1.15,.67,2.75,1.47,3.56l1.4,1.4c.81,.81,.81,2.14,0,2.95l-1.4,1.4c-.81,.81-1.47,2.41-1.47,3.56v50.18c0,1.18,.41,2.16,1.22,2.99,.81,.9,1.85,1.35,3.12,1.35h8.68c1.17,0,2.17-.45,2.98-1.35,.9-.82,1.36-1.81,1.36-2.99V55.93c0-1.15-.66-2.75-1.47-3.56l-1.4-1.4c-.81-.81-.81-2.14,0-2.95l1.4-1.4c.81-.81,1.47-2.42,1.47-3.56v-6.62Z"/>
  <path class="cls-2" d="M230.41,36.5c0-1.27-.45-2.31-1.35-3.12-.82-.82-1.81-1.22-2.99-1.22h-78.12c-1.27,0-2.31,.4-3.12,1.22-.81,.81-1.21,1.85-1.21,3.12V106.12c0,1.18,.4,2.17,1.21,2.99,.81,.9,1.86,1.35,3.12,1.35h8.68c1.17,0,2.17-.45,2.99-1.35,.9-.82,1.36-1.81,1.36-2.99l.02-11.05c0-1.15-.67-2.74-1.47-3.55l-3.57-3.57c-.81-.81-.98-1.96-.39-2.56,.59-.6,1.93-.67,2.95-.16l4.96,2.48c1.03,.51,2.81,.93,3.95,.93h58.65c1.18,0,2.17-.44,2.99-1.34,.9-.82,1.35-1.81,1.35-2.98V36.5Zm-23.8,34.76h-39.19c-1.14,0-2.92,.42-3.95,.94l-4.96,2.48c-1.02,.52-2.35,.45-2.95-.15-.59-.59-.42-1.75,.39-2.56l3.57-3.57c.81-.81,1.47-2.41,1.47-3.56v-8.86c0-1.14-.67-2.75-1.47-3.56l-3.57-3.57c-.81-.81-.98-1.97-.39-2.56,.59-.6,1.93-.67,2.95-.16l4.96,2.48c1.03,.51,2.81,.93,3.95,.93h39.19c1.15,0,2.92-.42,3.95-.93l4.96-2.48c1.02-.51,2.35-.44,2.95,.16,.6,.59,.42,1.75-.39,2.56l-3.57,3.57c-.81,.81-1.47,2.41-1.47,3.56v8.86c0,1.15,.67,2.75,1.48,3.56l3.57,3.57c.81,.81,.99,1.96,.39,2.56-.6,.6-1.93,.67-2.95,.15l-4.96-2.48c-1.02-.52-2.8-.94-3.95-.94"/>
  <path class="cls-2" d="M258.02,76.55l4.96,2.48c1.03,.51,2.8,.93,3.95,.93h58.73c1.17,0,2.17-.41,2.98-1.22,.9-.81,1.36-1.86,1.36-3.12l-.08-39.11c0-.6-.1-1.16-.28-1.67-.23-.47-.56-.91-.99-1.3-.67-.75-1.46-1.17-2.36-1.31-.18-.03-78.82-.06-78.82-.06-1.27,0-2.31,.4-3.12,1.22-.81,.82-1.22,1.85-1.22,3.12V106.12c0,1.18,.41,2.17,1.22,2.99,.81,.9,1.85,1.35,3.12,1.35l78.2-.09c1.17,0,2.17-.4,2.98-1.22,.9-.81,1.36-1.85,1.36-3.12v-8.69c0-1.18-.46-2.17-1.36-2.99-.81-.91-1.81-1.36-2.98-1.36h-58.73c-1.14,0-2.92,.42-3.95,.93l-4.96,2.48c-1.02,.51-2.35,.45-2.95-.15-.6-.6-.43-1.76,.39-2.57l3.57-3.57c.82-.81,1.47-2.41,1.47-3.55v-.18c0-1.14-.66-2.75-1.47-3.56l-3.57-3.57c-.81-.81-.98-1.96-.39-2.56,.6-.59,1.93-.66,2.95-.15m1.01-24.13l-3.57-3.57c-.81-.81-.98-1.96-.39-2.56,.6-.6,1.93-.67,2.95-.15l4.96,2.48c1.03,.51,2.8,.93,3.95,.93h39.19c1.14,0,2.92-.42,3.95-.93l4.96-2.48c1.02-.51,2.35-.45,2.95,.15,.6,.6,.42,1.75-.39,2.56l-.7,.7-2.87,2.88c-.82,.81-1.48,2.41-1.48,3.55v.17c0,1.15,.67,2.75,1.48,3.56l2.87,2.88,.7,.7c.81,.81,.98,1.96,.39,2.56-.6,.6-1.93,.67-2.95,.16l-4.96-2.48c-1.03-.51-2.81-.93-3.95-.93h-39.19c-1.14,0-2.92,.42-3.95,.93l-4.96,2.48c-1.02,.51-2.35,.44-2.95-.16-.6-.59-.43-1.75,.39-2.56l3.57-3.58c.82-.81,1.47-2.41,1.47-3.56v-.17c0-1.15-.66-2.75-1.47-3.55"/>
  <path class="cls-2" d="M618.44,95.85l-23.14-23.14c-.81-.81-2.41-1.48-3.55-1.48h-8.79c-.63,0-1.18-.18-1.63-.54-.36-.45-.54-.99-.54-1.63,0-.54,.18-1.03,.54-1.49l.45-.46c.65-.13,2.11-.23,3.26-.23h12.25c.27,.05,.55,.08,.85,.08h8.73c1.17,0,2.17-.45,2.98-1.35,.9-.81,1.36-1.81,1.36-2.99v-26.18c0-1.27-.46-2.3-1.36-3.12-.81-.81-1.81-1.22-2.98-1.22h-8.73s0,0-.02,0h-52.09v.05h-8.65c-1.27,0-2.31,.4-3.11,1.22-.82,.82-1.23,1.85-1.23,3.12v11.68s0,0,0,0v43.82s0,.01,0,.01v14.02c0,1.17,.41,2.17,1.23,2.98,.81,.9,1.85,1.36,3.11,1.36h8.68c1.18,0,2.17-.45,2.99-1.36,.9-.81,1.36-1.81,1.36-2.98v-10.45h.03v-9.22c0-1.15-.66-2.75-1.47-3.56l-3.57-3.58c-.81-.81-.99-1.96-.39-2.56,.59-.6,1.92-.67,2.95-.15l4.97,2.48c1.02,.51,2.8,.93,3.94,.93h17.5c1.14,0,2.75,.66,3.55,1.48l27.49,27.49c.81,.81,2.41,1.47,3.56,1.47h6.62c1.17,0,2.17-.4,2.98-1.23,.91-.82,.96-1.08,.96-1.08,.22-1.12,.4-2.98,.4-4.12v-4.53c0-1.15-.67-2.75-1.47-3.56m-61.59-33.31c-1.14,0-2.92,.41-3.94,.93l-4.97,2.49c-1.02,.51-2.35,.44-2.95-.16-.6-.6-.43-1.75,.39-2.56l3.57-3.57c.81-.82,1.47-2.42,1.47-3.56v-.17c0-1.15-.66-2.75-1.47-3.56l-3.57-3.58c-.81-.81-.99-1.97-.39-2.56,.59-.6,1.92-.67,2.95-.16l4.97,2.48c1.02,.52,2.8,.94,3.94,.94h30.54c1.14,0,2.92-.42,3.95-.94l2.45-1.23,2.52-1.25c1.03-.51,2.35-.45,2.95,.16,.6,.59,.43,1.75-.37,2.56l-3.58,3.58c-.81,.81-1.47,2.41-1.47,3.56v2.26c0,.17-.01,.35-.03,.52-.11,1.03-.55,1.9-1.32,2.6-.82,.81-.94,.84-.94,.84-1.13,.21-2.99,.39-4.13,.39h-30.54Z"/>
  <path class="cls-2" d="M518.96,33.53c-.81-.9-1.8-1.35-2.99-1.35h-38.56c-.17,0-.34,0-.49,.03-.16-.02-.34-.03-.5-.03h-38.57c-1.18,0-2.17,.45-2.99,1.35-.9,.81-1.35,1.81-1.35,2.99v8.67c0,1.27,.45,2.31,1.35,3.12,.66,.66,1.44,1.03,2.34,1.16,5.04,.04,22.48,.06,23.26,.06h.39c1.68,0,4.27-.61,5.77-1.36l3.24-1.62c1.49-.75,3.2-.87,3.81-.28,.59,.6,.59,1.57,0,2.17-.25,.24-.63,.63-1.09,1.08-.65,.66-1.45,1.45-2.15,2.15l-.03,.04c-1.18,1.18-2.15,3.52-2.15,5.19v49.05c0,.24,.03,.48,.06,.71,.02,.16,.07,.32,.1,.47,.01,.03,.02,.06,.02,.09,.2,.64,.52,1.22,1.03,1.72,.81,.9,1.85,1.35,3.11,1.35h8.69c1.27,0,2.31-.45,3.12-1.35,.5-.5,.83-1.08,1.02-1.72,.01-.03,.02-.06,.03-.09,.04-.15,.08-.31,.1-.47,.04-.23,.07-.47,.07-.71V56.92c0-1.67-.97-4.01-2.15-5.19l-.03-.04c-.7-.7-1.49-1.5-2.15-2.15-.45-.45-.85-.84-1.09-1.08-.6-.6-.6-1.57,0-2.17,.6-.6,2.31-.48,3.81,.28l3.24,1.62c1.49,.75,4.09,1.36,5.76,1.36h.4c.77,0,18.21-.03,23.25-.06,.89-.12,1.68-.5,2.33-1.16,.9-.81,1.36-1.85,1.36-3.12v-8.67c0-1.18-.46-2.17-1.36-2.99"/>
  <path class="cls-2" d="M832.27,36.55h-.03v-.11c0-1.27-.46-2.3-1.36-3.12-.81-.81-1.81-1.22-2.99-1.22h-8.68c-1.27,0-2.31,.41-3.11,1.22-.34,.33-.59,.71-.78,1.12-.03,.04-.04,.07-.04,.07,0,0,0,0,0,.01-.26,.57-.4,1.2-.4,1.92v13.06c0,.1,.02,.19,.02,.28v32.44c0,1.15,.42,2.92,.94,3.94l2.48,4.96c.51,1.03,.45,2.35-.15,2.95-.6,.59-1.74,.42-2.56-.39l-60-60.01c-.81-.81-2.41-1.47-3.55-1.47h-1.3c-.31-.08-.63-.12-.97-.12h-8.68c-1.27,0-2.3,.41-3.12,1.22-.82,.81-1.22,1.85-1.22,3.12v13.06h0v43.54h0v13.07c0,1.17,.41,2.17,1.22,2.99,.81,.9,1.84,1.35,3.12,1.35h8.68c1.18,0,2.17-.45,2.99-1.35,.9-.81,1.35-1.81,1.35-2.99v-2.17h0v-39.26c0-1.15-.42-2.92-.93-3.95l-2.48-4.96c-.51-1.02-.44-2.35,.15-2.95,.59-.6,1.75-.42,2.56,.39l55.66,55.66c.81,.81,2.41,1.48,3.55,1.48h5.66c.3,.05,.6,.08,.92,.08h8.68c1.18,0,2.17-.45,2.99-1.35,.9-.81,1.36-1.81,1.36-2.99v-2.14l.03-.04V36.55Z"/>
  <path class="cls-1" d="M862.35,36.45c0-1.27-.45-2.3-1.36-3.11-.81-.82-1.81-1.23-2.98-1.23h-8.69c-1.26,0-2.31,.41-3.11,1.23-.81,.81-1.22,1.84-1.22,3.11v6.62c0,1.15,.67,2.75,1.47,3.56l1.4,1.4c.81,.81,.81,2.14,0,2.95l-1.4,1.4c-.81,.81-1.47,2.41-1.47,3.56v50.18c0,1.18,.41,2.16,1.22,2.99,.81,.9,1.86,1.35,3.11,1.35h8.69c1.17,0,2.17-.45,2.98-1.35,.9-.82,1.36-1.81,1.36-2.99V55.93c0-1.15-.66-2.75-1.47-3.56l-1.4-1.4c-.81-.81-.81-2.14,0-2.95l1.4-1.4c.82-.81,1.47-2.42,1.47-3.56v-6.62Z"/>
  <path class="cls-2" d="M1066.01,66.85c0-1.26-.46-2.3-1.36-3.11-.82-.82-1.82-1.23-2.99-1.23l-58.64,.04c-1.15,0-2.92,.42-3.95,.93l-4.96,2.48c-1.02,.52-2.35,.45-2.95-.15-.6-.6-.43-1.75,.38-2.56l3.57-3.58c.82-.81,1.47-2.41,1.47-3.56v-.17c0-1.15-.66-2.75-1.47-3.56l-3.57-3.58c-.81-.81-.98-1.96-.38-2.56,.59-.6,1.93-.67,2.95-.15l4.96,2.48c1.03,.51,2.8,.93,3.95,.93h58.64l.02-.04c1.26,0,2.29-.46,3.1-1.35,.82-.82,1.23-1.82,1.23-2.99v-8.66s-.41-2.33-1.23-3.13c-.81-.82-1.85-1.23-3.11-1.23h-78.12s-.03,.06-.03,.06c-1.25,0-2.28,.41-3.1,1.22-.81,.82-1.22,1.85-1.22,3.12v39.09c0,1.17,.41,2.17,1.22,2.98,.82,.91,1.86,1.36,3.13,1.36h58.64c1.15,0,2.92-.42,3.95-.93l4.96-2.48c1.02-.51,2.35-.44,2.95,.16,.59,.59,.42,1.75-.38,2.56l-3.58,3.58c-.81,.81-1.47,2.41-1.47,3.56v.18c0,1.14,.67,2.75,1.47,3.55l3.58,3.58c.8,.81,.98,1.96,.38,2.56-.6,.6-1.93,.67-2.95,.16l-4.96-2.49c-1.03-.51-2.8-.93-3.95-.93h-58.64l-.02,.03c-1.17,0-2.16,.41-2.97,1.22-.9,.81-1.36,1.86-1.36,3.12v8.68c0,1.18,.46,2.17,1.36,2.99,.81,.9,1.81,1.35,2.99,1.35h78.13c1.27,0,2.31-.45,3.11-1.35,.82-.82,1.23-1.81,1.23-2.99v-39.17Z"/>
  <path class="cls-2" d="M722.69,33.27c-.82-.81-1.81-1.22-2.99-1.22h-82.73c-1.27,0-2.31,.41-3.12,1.22-.81,.82-1.22,1.85-1.22,3.12V106.02c0,1.18,.41,2.17,1.22,2.99,.81,.9,1.85,1.35,3.12,1.35h82.73c1.18,0,2.17-.45,2.99-1.35,.9-.81,1.36-1.81,1.36-2.99V36.41h0c0-1.28-.46-2.31-1.36-3.13m-22.48,59.69h-43.7c-1.14,0-2.91,.41-3.94,.93l-4.98,2.49c-1.02,.52-2.35,.44-2.95-.16-.6-.6-.43-1.75,.38-2.56l3.59-3.59c.81-.81,1.47-2.41,1.47-3.55v-30.65c0-1.14-.66-2.74-1.47-3.55l-3.59-3.59c-.81-.81-.98-1.97-.38-2.56,.6-.6,1.93-.67,2.95-.16l4.98,2.49c1.03,.51,2.8,.93,3.94,.93h43.7c1.14,0,2.92-.42,3.94-.93l4.98-2.49c1.02-.51,2.35-.44,2.95,.16,.6,.59,.43,1.75-.39,2.56l-3.59,3.59c-.8,.8-1.47,2.4-1.47,3.55v30.65c0,1.14,.67,2.74,1.47,3.55l3.58,3.59c.81,.81,.98,1.96,.39,2.56-.59,.6-1.93,.67-2.95,.16l-4.98-2.49c-1.02-.51-2.8-.93-3.94-.93"/>
  <path class="cls-2" d="M890.04,46.03l4.98,2.49c1.02,.52,2.79,.94,3.94,.94l63.19,.08c1.17,0,2.17-.41,2.99-1.23,.9-.81,1.36-1.85,1.36-3.11v-8.68c0-1.17-.46-2.17-1.36-2.99-.81-.9-1.8-1.35-2.97-1.35,.03-.08,.04-.12-.01-.12h-82.73c-1.26,0-2.31,.4-3.11,1.22-.82,.82-1.23,1.85-1.23,3.11V106.02c0,1.18,.41,2.18,1.23,2.99,.81,.9,1.85,1.35,3.11,1.35h82.73c1.17,0,2.17-.4,2.99-1.21,.9-.81,1.36-1.85,1.36-3.12v-8.68c0-1.18-.46-2.17-1.36-2.98-.81-.9-1.81-1.35-2.99-1.35l-63.19-.05c-1.15,0-2.92,.41-3.94,.92l-4.98,2.49c-1.02,.51-2.35,.44-2.95-.15-.6-.6-.43-1.75,.38-2.56l3.58-3.59c.81-.81,1.47-2.41,1.47-3.55v-30.64c0-1.15-.66-2.75-1.47-3.55l-3.58-3.59c-.82-.8-.98-1.96-.38-2.56,.59-.6,1.93-.66,2.95-.16"/>
</svg>