<?xml version="1.0" encoding="UTF-8"?>
<svg xmlns="http://www.w3.org/2000/svg" xmlns:xlink="http://www.w3.org/1999/xlink" viewBox="0 0 449 442">
    <defs>
        <style>
            .cls-1, .cls-2 {
            fill: none;
            }

            .cls-3 {
            fill: url(#linear-gradient);
            }

            .cls-4 {
            clip-path: url(#clippath);
            }

            .cls-5 {
            mask: url(#mask);
            }

            .cls-6 {
            fill: #8d8f91;
            }

            .cls-7 {
            mix-blend-mode: multiply;
            }

            .cls-2 {
            clip-rule: evenodd;
            }

            .cls-8 {
            clip-path: url(#clippath-1);
            }

            .cls-9 {
            clip-path: url(#clippath-4);
            }

            .cls-10 {
            clip-path: url(#clippath-3);
            }

            .cls-11 {
            clip-path: url(#clippath-2);
            }

            .cls-12 {
            clip-path: url(#clippath-7);
            }

            .cls-13 {
            clip-path: url(#clippath-8);
            }

            .cls-14 {
            clip-path: url(#clippath-6);
            }

            .cls-15 {
            clip-path: url(#clippath-5);
            }

            .cls-16 {
            clip-path: url(#clippath-9);
            }

            .cls-17 {
            fill: url(#radial-gradient-2);
            opacity: .73;
            }

            .cls-18 {
            clip-path: url(#clippath-20);
            }

            .cls-19 {
            clip-path: url(#clippath-21);
            }

            .cls-20 {
            clip-path: url(#clippath-23);
            }

            .cls-21 {
            clip-path: url(#clippath-22);
            }

            .cls-22 {
            clip-path: url(#clippath-14);
            }

            .cls-23 {
            clip-path: url(#clippath-13);
            }

            .cls-24 {
            clip-path: url(#clippath-12);
            }

            .cls-25 {
            clip-path: url(#clippath-10);
            }

            .cls-26 {
            clip-path: url(#clippath-15);
            }

            .cls-27 {
            clip-path: url(#clippath-17);
            }

            .cls-28 {
            clip-path: url(#clippath-16);
            }

            .cls-29 {
            clip-path: url(#clippath-19);
            }

            .cls-30 {
            clip-path: url(#clippath-11);
            }

            .cls-31 {
            clip-path: url(#clippath-18);
            }

            .cls-32 {
            fill: url(#radial-gradient-6);
            }

            .cls-33 {
            fill: url(#radial-gradient-5);
            }

            .cls-34 {
            fill: url(#radial-gradient-3);
            }

            .cls-35 {
            fill: url(#radial-gradient-4);
            }

            .cls-36 {
            fill: url(#radial-gradient-7);
            }

            .cls-37 {
            fill: url(#linear-gradient-8);
            }

            .cls-38 {
            fill: url(#linear-gradient-9);
            }

            .cls-39 {
            fill: url(#linear-gradient-3);
            }

            .cls-40 {
            fill: url(#linear-gradient-4);
            }

            .cls-41 {
            fill: url(#linear-gradient-2);
            }

            .cls-42 {
            fill: url(#linear-gradient-6);
            }

            .cls-43 {
            fill: url(#linear-gradient-7);
            }

            .cls-44 {
            fill: url(#linear-gradient-5);
            }

            .cls-45 {
            fill: url(#radial-gradient);
            }

            .cls-46 {
            fill: #cb661c;
            }

            .cls-46, .cls-47, .cls-48 {
            fill-rule: evenodd;
            }

            .cls-47 {
            fill: #fff;
            }

            .cls-48 {
            fill: #6a300b;
            }

            .cls-49 {
            fill: url(#linear-gradient-13);
            }

            .cls-50 {
            fill: url(#linear-gradient-12);
            }

            .cls-51 {
            fill: url(#linear-gradient-10);
            }

            .cls-52 {
            fill: url(#linear-gradient-11);
            }

            .cls-53 {
            isolation: isolate;
            }

            .cls-54 {
            mask: url(#mask-3);
            }

            .cls-55 {
            mask: url(#mask-2);
            }

            .cls-56 {
            mask: url(#mask-5);
            }

            .cls-57 {
            mask: url(#mask-4);
            }

            .cls-58 {
            mask: url(#mask-1);
            }

            .cls-59 {
            mask: url(#mask-6);
            }
        </style>
        <clipPath id="clippath">
            <path class="cls-2"
                  d="M388.8,220.9c0,90.74-73.57,164.31-164.3,164.31S60.2,311.65,60.2,220.9,133.76,56.61,224.5,56.61s164.3,73.56,164.3,164.3"/>
        </clipPath>
        <radialGradient id="radial-gradient" cx="-1493.92" cy="5763.74" fx="-1493.92" fy="5763.74" r="4.58"
                        gradientTransform="translate(53872.57 207201.88) scale(35.91 -35.91)"
                        gradientUnits="userSpaceOnUse">
            <stop offset="0" stop-color="#222221"/>
            <stop offset=".77" stop-color="#222221"/>
            <stop offset=".81" stop-color="#242423"/>
            <stop offset=".85" stop-color="#2e2e2d"/>
            <stop offset=".87" stop-color="#3d3d3d"/>
            <stop offset=".9" stop-color="#545453"/>
            <stop offset=".93" stop-color="#707070"/>
            <stop offset=".95" stop-color="#949493"/>
            <stop offset=".97" stop-color="#bebebd"/>
            <stop offset=".99" stop-color="#ededed"/>
            <stop offset="1" stop-color="#fff"/>
        </radialGradient>
        <mask id="mask" x="43.3" y="32.65" width="362.39" height="376.51" maskUnits="userSpaceOnUse">
            <g>
                <rect x="43.3" y="32.65" width="362.39" height="376.51"/>
                <g class="cls-53">
                    <g class="cls-4">
                        <rect class="cls-45" x="60.2" y="56.61" width="328.6" height="328.6"/>
                    </g>
                </g>
            </g>
        </mask>
        <clipPath id="clippath-1">
            <rect class="cls-1" x="43.3" y="32.65" width="362.39" height="376.51"/>
        </clipPath>
        <clipPath id="clippath-2">
            <rect class="cls-1" x="58.33" y="48.32" width="332.35" height="183.92"/>
        </clipPath>
        <clipPath id="clippath-3">
            <path class="cls-2"
                  d="M226.46,70.86c88.13,0,160.22,71.28,165.82,161.39,.23-3.73,.36-7.49,.36-11.27,0-95.34-74.4-172.65-166.18-172.65S60.28,125.63,60.28,220.97c0,3.79,.13,7.55,.37,11.27,5.58-90.1,77.68-161.39,165.81-161.39"/>
        </clipPath>
        <radialGradient id="radial-gradient-2" cx="-1479.99" cy="5794.21" fx="-1479.99" fy="5794.21" r="4.58"
                        gradientTransform="translate(43667.96 170214.73) scale(29.35 -29.35)"
                        gradientUnits="userSpaceOnUse">
            <stop offset="0" stop-color="#fff"/>
            <stop offset=".16" stop-color="#fbfbfb"/>
            <stop offset=".3" stop-color="#f1f1f1"/>
            <stop offset=".43" stop-color="#e0e0df"/>
            <stop offset=".55" stop-color="#c7c7c7"/>
            <stop offset=".67" stop-color="#a7a7a7"/>
            <stop offset=".78" stop-color="#818180"/>
            <stop offset=".89" stop-color="#545453"/>
            <stop offset="1" stop-color="#222221"/>
        </radialGradient>
        <mask id="mask-1" x="58.33" y="48.32" width="334.31" height="183.92" maskUnits="userSpaceOnUse">
            <g>
                <rect x="58.33" y="48.32" width="332.35" height="183.92"/>
                <g class="cls-53">
                    <g class="cls-11">
                        <g class="cls-10">
                            <rect class="cls-17" x="60.28" y="48.32" width="332.35" height="183.92"/>
                        </g>
                    </g>
                </g>
            </g>
        </mask>
        <clipPath id="clippath-4">
            <rect class="cls-1" x="58.33" y="48.32" width="332.35" height="183.92"/>
        </clipPath>
        <clipPath id="clippath-5">
            <rect class="cls-1" x="71.46" y="222.07" width="306.07" height="174.62"/>
        </clipPath>
        <clipPath id="clippath-6">
            <path class="cls-2"
                  d="M383.34,309.39c0,50.05-71.12,90.61-158.85,90.61s-158.83-40.57-158.83-90.61,71.11-90.62,158.83-90.62,158.85,40.57,158.85,90.62"/>
        </clipPath>
        <radialGradient id="radial-gradient-3" cx="-1486.5" cy="5842.98" fx="-1486.5" fy="5842.98" r="4.58"
                        gradientTransform="translate(47906.9 127449.13) scale(32.08 -21.76)"
                        gradientUnits="userSpaceOnUse">
            <stop offset="0" stop-color="#fff"/>
            <stop offset=".09" stop-color="#fbfbfb"/>
            <stop offset=".18" stop-color="#f0f0f0"/>
            <stop offset=".26" stop-color="#ddd"/>
            <stop offset=".34" stop-color="#c4c4c4"/>
            <stop offset=".42" stop-color="#a3a3a3"/>
            <stop offset=".49" stop-color="#7c7c7c"/>
            <stop offset=".52" stop-color="#6b6b6b"/>
            <stop offset=".59" stop-color="#525152"/>
            <stop offset=".66" stop-color="#3e3c3e"/>
            <stop offset=".74" stop-color="#302e2f"/>
            <stop offset=".84" stop-color="#282527"/>
            <stop offset="1" stop-color="#262325"/>
        </radialGradient>
        <mask id="mask-2" x="65.66" y="218.77" width="317.68" height="181.23" maskUnits="userSpaceOnUse">
            <g>
                <rect x="71.46" y="222.07" width="306.07" height="174.62"/>
                <g class="cls-53">
                    <g class="cls-15">
                        <g class="cls-14">
                            <rect class="cls-34" x="65.66" y="218.77" width="317.68" height="181.23"/>
                        </g>
                    </g>
                </g>
            </g>
        </mask>
        <clipPath id="clippath-7">
            <rect class="cls-1" x="71.46" y="222.07" width="306.07" height="174.62"/>
        </clipPath>
        <clipPath id="clippath-8">
            <path class="cls-2"
                  d="M377.54,309.39c0,48.22-68.53,87.3-153.04,87.3s-153.03-39.09-153.03-87.3,68.52-87.31,153.03-87.31,153.04,39.09,153.04,87.31"/>
        </clipPath>
        <radialGradient id="radial-gradient-4" cx="-1483.85" cy="5850.79" fx="-1483.85" fy="5850.79" r="4.58"
                        gradientTransform="translate(46082.35 122966.57) scale(30.9 -20.96)"
                        gradientUnits="userSpaceOnUse">
            <stop offset="0" stop-color="#eec62f"/>
            <stop offset="1" stop-color="#d17c1d"/>
        </radialGradient>
        <clipPath id="clippath-9">
            <path class="cls-1"
                  d="M56.24,220.99c0-92.91,75.33-168.25,168.26-168.25s168.26,75.33,168.26,168.25-75.33,168.26-168.26,168.26S56.24,313.93,56.24,220.99m-38.82,0c0,114.38,92.71,207.09,207.08,207.09s207.08-92.71,207.08-207.09S338.86,13.92,224.5,13.92,17.42,106.63,17.42,220.99"/>
        </clipPath>
        <linearGradient id="linear-gradient" x1="-1582.42" y1="5586.72" x2="-1577.84" y2="5586.72"
                        gradientTransform="translate(-142810.34 -505494.69) rotate(-180) scale(90.52 -90.52)"
                        gradientUnits="userSpaceOnUse">
            <stop offset="0" stop-color="#4c5256"/>
            <stop offset="1" stop-color="#e8e8e8"/>
        </linearGradient>
        <clipPath id="clippath-10">
            <path class="cls-1"
                  d="M40.62,221c0-101.39,82.48-183.89,183.88-183.89s183.89,82.49,183.89,183.89-82.49,183.89-183.89,183.89S40.62,322.39,40.62,221m-8.71,0c0,106.2,86.39,192.6,192.59,192.6s192.6-86.4,192.6-192.6S330.7,28.4,224.5,28.4,31.91,114.8,31.91,221"/>
        </clipPath>
        <linearGradient id="linear-gradient-2" x1="-1609.69" y1="5630.95" x2="-1605.11" y2="5630.95"
                        gradientTransform="translate(-548420.52 -166266.11) rotate(122.81) scale(97.91 -97.91)"
                        gradientUnits="userSpaceOnUse">
            <stop offset="0" stop-color="#5e5e60"/>
            <stop offset="1" stop-color="#e8e8e8"/>
        </linearGradient>
        <clipPath id="clippath-11">
            <path class="cls-1"
                  d="M60.2,221c0-90.75,73.56-164.3,164.3-164.3s164.31,73.56,164.31,164.3-73.57,164.3-164.31,164.3S60.2,311.74,60.2,221m-23.94,0c0,103.97,84.28,188.25,188.24,188.25s188.25-84.28,188.25-188.25S328.46,32.76,224.5,32.76,36.26,117.04,36.26,221"/>
        </clipPath>
        <linearGradient id="linear-gradient-3" x1="-1530.69" y1="5692.32" x2="-1526.12" y2="5692.32"
                        gradientTransform="translate(125990.89 468619.42) scale(82.29 -82.29)"
                        xlink:href="#linear-gradient-2"/>
        <clipPath id="clippath-12">
            <path class="cls-1"
                  d="M117.04,152.26c-5,.88-10,1.82-14.99,2.78-2.94,.57-5.67,2.03-8.1,4.29-2.44,2.27-4.07,4.82-4.76,7.63-13.53,38.29-13.53,70.6,0,111.03,.65,2.66,2.25,5.16,4.57,7.31,2.47,2.46,5.34,4.11,8.29,4.7,4.99,.99,9.99,1.94,14.98,2.83,2.75,.49,4.98-.22,6.49-2.05,1.69-1.65,2.36-4.06,1.87-6.92-1.87-11.17-3.24-22.19-4.11-33.14-.3-3.73-2.66-8.63-5.55-11.33-1.42-1.33-2.83-2.65-4.24-3.96-.58-.55-.99-1.07-1.26-1.49,.89,.11,1.93,.43,2.85,.88,2.03,1,4.05,2.01,6.09,3.02,3.24,1.61,8.54,3.03,12.09,3.16,22.96,.86,46,1.41,69.06,1.65,3.56,.04,8.84-1.25,12.02-2.93,1.99-1.06,3.99-2.12,6-3.18,.92-.49,1.96-.82,2.84-.92-.24,.47-.64,1.06-1.21,1.67-1.36,1.45-2.72,2.89-4.07,4.35-2.76,2.94-4.8,8.31-4.74,12.49,.04,3.65,.1,7.3,.16,10.95,0,.04,0,.07,0,.1,.14,8.6,.32,17.2,.55,25.79,.08,3.19,1.18,5.95,3.1,8.08,2.01,2.47,4.63,3.82,7.61,3.84,5.04,.05,10.08,.03,15.11-.06,2.78-.04,5.28-1.35,7.28-3.76,2.14-2.24,3.35-5.08,3.43-8.22,.51-19.08,.81-38.15,.89-57.21,.02-4.51-2.83-9.49-6.61-11.6-10.13-5.61-20.27-11.28-30.33-16.82-3.16-1.75-8.44-3.07-12.02-3.02-23.06,.29-46.12,.96-69.06,1.86-3.55,.14-8.85,1.56-12.09,3.16-2.04,1.02-4.07,2.02-6.09,3-.92,.46-1.97,.77-2.85,.89,.26-.42,.67-.94,1.26-1.48,1.41-1.3,2.82-2.63,4.24-3.95,2.88-2.7,5.25-7.59,5.55-11.32,.86-10.95,2.22-21.97,4.1-33.14,.51-3.07-.14-5.58-1.83-7.16-1.21-1.31-2.79-1.97-4.74-1.97-.57,0-1.17,.06-1.8,.17"/>
        </clipPath>
        <linearGradient id="linear-gradient-4" x1="-1429.34" y1="5623.89" x2="-1424.77" y2="5623.89"
                        gradientTransform="translate(56176.25 220858.07) scale(39.23 -39.23)"
                        gradientUnits="userSpaceOnUse">
            <stop offset="0" stop-color="#fff"/>
            <stop offset=".06" stop-color="#dadada"/>
            <stop offset=".16" stop-color="#a7a7a7"/>
            <stop offset=".26" stop-color="#7a7a7a"/>
            <stop offset=".37" stop-color="#545454"/>
            <stop offset=".48" stop-color="#353535"/>
            <stop offset=".59" stop-color="#1e1e1e"/>
            <stop offset=".71" stop-color="#0d0d0d"/>
            <stop offset=".84" stop-color="#030303"/>
            <stop offset="1" stop-color="#000"/>
        </linearGradient>
        <mask id="mask-3" x="27.68" y="96.85" width="269.64" height="261.34" maskUnits="userSpaceOnUse">
            <rect class="cls-40" x="62.17" y="120.3" width="200.67" height="214.44"
                  transform="translate(-106.55 303.57) rotate(-70.25)"/>
        </mask>
        <linearGradient id="linear-gradient-5" x1="-1429.34" y1="5623.89" x2="-1424.77" y2="5623.89"
                        gradientTransform="translate(56176.25 220858.07) scale(39.23 -39.23)"
                        gradientUnits="userSpaceOnUse">
            <stop offset="0" stop-color="#6a300b"/>
            <stop offset=".06" stop-color="#76370d"/>
            <stop offset=".22" stop-color="#954812"/>
            <stop offset=".38" stop-color="#ac5516"/>
            <stop offset=".56" stop-color="#bd5e19"/>
            <stop offset=".76" stop-color="#c7641b"/>
            <stop offset="1" stop-color="#cb661c"/>
        </linearGradient>
        <clipPath id="clippath-13">
            <path class="cls-1"
                  d="M216.95,141.92c-2.97,.03-5.58,1.36-7.5,3.73-2.02,2.27-3.12,5.03-3.2,8.22-.16,5.72-.28,11.43-.4,17.14-.07,3.36,.93,6.18,2.94,8.36,2.02,2.19,4.63,3.29,7.75,3.28,15.93-.08,31.85,.18,47.75,.76,2.96,.11,5.47-.9,7.32-2.86,2.16-2.04,3.21-4.85,3.03-8.15-.31-5.57-.66-11.15-1.07-16.74-.22-3.08-1.56-5.92-3.81-8.24-2.12-2.48-4.68-3.9-7.45-4.1-13.38-.96-26.78-1.44-40.17-1.44-1.73,0-3.45,0-5.18,.03"/>
        </clipPath>
        <linearGradient id="linear-gradient-6" x1="-1544.27" y1="5442.2" x2="-1539.69" y2="5442.2"
                        gradientTransform="translate(142802.17 -40231.75) rotate(-90) scale(26.2 -26.2)"
                        gradientUnits="userSpaceOnUse">
            <stop offset="0" stop-color="#fff"/>
            <stop offset=".01" stop-color="#f7f7f7"/>
            <stop offset=".1" stop-color="#cbcbcb"/>
            <stop offset=".2" stop-color="#a5a5a5"/>
            <stop offset=".29" stop-color="#868686"/>
            <stop offset=".39" stop-color="#6f6f6f"/>
            <stop offset=".5" stop-color="#5e5e5e"/>
            <stop offset=".62" stop-color="#545454"/>
            <stop offset=".76" stop-color="#515151"/>
            <stop offset="1" stop-color="#000"/>
        </linearGradient>
        <mask id="mask-4" x="187.8" y="112.07" width="105.02" height="101.29" maskUnits="userSpaceOnUse">
            <rect class="cls-42" x="205.06" y="122.41" width="70.5" height="80.61"
                  transform="translate(-20.49 290.01) rotate(-60.12)"/>
        </mask>
        <linearGradient id="linear-gradient-7" x1="-1544.26" y1="5442.2" x2="-1539.69" y2="5442.2"
                        gradientTransform="translate(142802.2 -40231.73) rotate(-90) scale(26.2 -26.2)"
                        gradientUnits="userSpaceOnUse">
            <stop offset="0" stop-color="#6a300b"/>
            <stop offset=".06" stop-color="#75360d"/>
            <stop offset=".21" stop-color="#8c4311"/>
            <stop offset=".37" stop-color="#9d4c15"/>
            <stop offset=".54" stop-color="#a75217"/>
            <stop offset=".76" stop-color="#ab5418"/>
            <stop offset="1" stop-color="#cb661c"/>
        </linearGradient>
        <clipPath id="clippath-14">
            <path class="cls-1"
                  d="M278.73,148.2c-1.77,1.99-2.54,4.58-2.31,7.69,.54,7.05,1.01,14.09,1.38,21.12,.05,.78-.36,2.14-1.38,3.23-.78,.83-1.57,1.66-2.36,2.49-2.61,2.75-4.51,7.96-4.41,12.05,.84,31.62,.24,63.15-1.81,94.89-.2,3.13,.63,5.76,2.33,7.67,1.77,2.25,4.24,3.29,7.21,3.02,5.03-.46,10.05-.99,15.07-1.58,2.77-.32,5.39-1.82,7.62-4.3,2.36-2.32,3.84-5.11,4.2-8.07,3.75-30.39,4.85-60.12,3.3-90.11-.2-3.88-2.59-9.01-5.66-12.12-1.39-1.42-2.79-2.83-4.18-4.25-.61-.58-1.23-1.15-1.84-1.72h.04c.95,.07,2.24,.5,3.37,1.14,2.04,1.15,4.07,2.3,6.11,3.43,3.25,1.82,8.55,3.41,12.05,3.68,.24,.02,.48,.03,.72,.05,1.44,.03,34.51,2.68,43.62,3.61,.12,0,.26,.02,.39,.02,2.23-.07,4.08-.76,5.37-1.92,1.96-1.54,2.73-3.75,2.21-6.47-.87-5.34-2.47-10.36-4.39-14.76-1.01-2.58-2.36-4.3-4.91-6.53-2.44-2.36-5.19-3.93-7.93-4.48-22.14-4.4-44.42-8.07-66.76-10.51-.38-.04-.75-.06-1.11-.06-2.47,0-4.53,.99-5.96,2.81"/>
        </clipPath>
        <linearGradient id="linear-gradient-8" x1="-1561.76" y1="5502.79" x2="-1557.19" y2="5502.79"
                        gradientTransform="translate(209303.74 -59065.3) rotate(-90) scale(37.98 -37.98)"
                        xlink:href="#linear-gradient-4"/>
        <mask id="mask-5" x="208.9" y="106.55" width="220.15" height="232.93" maskUnits="userSpaceOnUse">
            <rect class="cls-37" x="227.04" y="144.04" width="183.89" height="157.96"
                  transform="translate(-16.54 420.28) rotate(-65.41)"/>
        </mask>
        <linearGradient id="linear-gradient-9" x1="-1561.76" y1="5502.79" x2="-1557.19" y2="5502.79"
                        gradientTransform="translate(209303.74 -59065.3) rotate(-90) scale(37.98 -37.98)"
                        xlink:href="#linear-gradient-5"/>
        <clipPath id="clippath-15">
            <path class="cls-1"
                  d="M114.22,149.44c-5,.89-10,1.81-14.99,2.78-2.93,.58-5.66,2.04-8.1,4.29-2.44,2.27-4.06,4.82-4.76,7.63-13.53,38.3-13.53,70.6,0,111.03,.65,2.67,2.26,5.16,4.58,7.31,2.46,2.46,5.35,4.11,8.3,4.7,4.99,1,9.98,1.94,14.98,2.83,2.76,.49,4.98-.21,6.49-2.04,1.7-1.65,2.36-4.07,1.87-6.93-1.87-11.16-3.23-22.18-4.1-33.14-.31-3.73-2.68-8.63-5.56-11.34-1.42-1.32-2.84-2.65-4.23-3.95-.58-.55-1-1.07-1.26-1.49,.88,.12,1.93,.44,2.85,.9,2.02,1,4.04,1.99,6.08,3.01,3.24,1.62,8.54,3.03,12.09,3.16,22.97,.86,46.01,1.41,69.07,1.64,3.55,.04,8.83-1.25,12.01-2.92,2-1.06,4-2.13,6-3.19,.92-.48,1.96-.81,2.84-.91-.24,.48-.63,1.06-1.21,1.68-1.36,1.44-2.72,2.9-4.07,4.33-2.76,2.96-4.8,8.32-4.75,12.49,.05,3.65,.1,7.3,.16,10.96,0,.03,0,.07,0,.1,.15,8.59,.32,17.19,.56,25.78,.08,3.19,1.16,5.96,3.08,8.09,2.02,2.49,4.64,3.83,7.62,3.85,5.04,.04,10.08,.02,15.11-.06,2.77-.04,5.27-1.35,7.28-3.77,2.14-2.24,3.34-5.08,3.42-8.23,.51-19.08,.81-38.13,.89-57.2,.03-4.51-2.82-9.5-6.61-11.6-10.12-5.61-20.27-11.27-30.33-16.82-3.16-1.74-8.44-3.08-12.01-3.02-23.06,.29-46.12,.95-69.07,1.86-3.55,.14-8.86,1.55-12.09,3.17-2.03,1.02-4.06,2.01-6.08,3.01-.93,.45-1.98,.77-2.85,.88,.26-.42,.68-.94,1.26-1.48,1.4-1.3,2.81-2.62,4.23-3.95,2.88-2.69,5.25-7.59,5.55-11.33,.86-10.95,2.23-21.98,4.1-33.14,.51-3.07-.15-5.59-1.82-7.16-1.22-1.32-2.8-1.97-4.76-1.97-.56,0-1.16,.06-1.79,.17"/>
        </clipPath>
        <linearGradient id="linear-gradient-10" x1="-1688.9" y1="5694.46" x2="-1684.33" y2="5694.46"
                        gradientTransform="translate(-59459.41 -201183.6) rotate(-180) scale(35.37 -35.37)"
                        gradientUnits="userSpaceOnUse">
            <stop offset="0" stop-color="#8d8f91"/>
            <stop offset="1" stop-color="#e8e8e8"/>
        </linearGradient>
        <clipPath id="clippath-16">
            <path class="cls-1"
                  d="M219.78,139.1c-2.97,.03-5.59,1.37-7.51,3.73-2.03,2.27-3.1,5.03-3.19,8.22-.16,5.71-.29,11.42-.41,17.13-.07,3.37,.93,6.18,2.94,8.37,2.02,2.19,4.63,3.3,7.76,3.28,15.92-.08,31.84,.18,47.75,.76,2.96,.11,5.46-.9,7.31-2.86,2.16-2.05,3.22-4.84,3.03-8.14-.31-5.58-.67-11.16-1.07-16.75-.23-3.07-1.56-5.93-3.82-8.24-2.11-2.47-4.68-3.9-7.45-4.1-13.36-.94-26.73-1.43-40.11-1.43-1.74,0-3.49,0-5.24,.02"/>
        </clipPath>
        <linearGradient id="linear-gradient-11" x1="-2019.81" y1="5721.78" x2="-2015.24" y2="5721.78"
                        gradientTransform="translate(-21723.86 -62120.02) rotate(180) scale(10.88 -10.88)"
                        xlink:href="#linear-gradient-10"/>
        <clipPath id="clippath-17">
            <path class="cls-1"
                  d="M281.55,145.38c-1.77,1.98-2.54,4.58-2.3,7.69,.55,7.05,1.01,14.08,1.38,21.12,.05,.8-.36,2.15-1.38,3.23-.78,.83-1.58,1.66-2.36,2.49-2.61,2.75-4.51,7.97-4.4,12.05,.84,31.61,.23,63.15-1.8,94.89-.21,3.13,.62,5.76,2.32,7.67,1.77,2.25,4.24,3.3,7.22,3.02,5.03-.46,10.06-.99,15.08-1.57,2.77-.32,5.39-1.82,7.62-4.3,2.36-2.33,3.83-5.12,4.2-8.08,3.75-30.39,4.86-60.12,3.31-90.12-.2-3.88-2.59-9.01-5.66-12.12-1.39-1.42-2.79-2.83-4.18-4.26-.62-.57-1.24-1.14-1.85-1.72,.01,0,.02,0,.04,0,.95,.08,2.24,.51,3.37,1.14,2.03,1.14,4.07,2.3,6.11,3.43,3.25,1.81,8.55,3.41,12.05,3.68,.23,.01,.48,.04,.71,.05,1.44,.04,34.52,2.69,43.62,3.61,.13,.02,.26,.02,.39,.02,2.23-.08,4.08-.75,5.38-1.93,1.96-1.53,2.74-3.74,2.21-6.47-.88-5.33-2.47-10.35-4.39-14.75-1.01-2.58-2.36-4.29-4.92-6.53-2.45-2.36-5.19-3.93-7.92-4.48-22.15-4.41-44.43-8.08-66.76-10.52-.38-.04-.74-.06-1.1-.06-2.48,0-4.54,.98-5.97,2.81"/>
        </clipPath>
        <linearGradient id="linear-gradient-12" x1="-1679.41" y1="5726.56" x2="-1674.83" y2="5726.56"
                        gradientTransform="translate(-193503.78 56966.99) rotate(90) scale(33.85 -33.85)"
                        xlink:href="#linear-gradient-10"/>
        <clipPath id="clippath-18">
            <path class="cls-1"
                  d="M113.61,152.29c-5.03,.86-10.04,1.75-15.07,2.69-2.2,.41-4.18,1.45-5.93,3.08-1.76,1.63-2.92,3.48-3.41,5.58-12.87,38.52-12.87,73.03,0,112.04,.47,1.95,1.59,3.75,3.35,5.38,1.81,1.79,3.8,2.92,6,3.35,5.01,.96,10.04,1.87,15.06,2.73,2.05,.35,3.61-.16,4.72-1.55,1.3-1.2,1.77-2.86,1.41-4.96-1.93-11.11-3.33-22.06-4.22-32.93-.24-2.94-2.29-7.13-4.58-9.27-1.43-1.33-2.84-2.66-4.26-3.96-2.27-2.11-3.27-4.59-2.18-5.58,1.07-.98,4.24-.71,7.04,.65,2.01,.98,4.04,1.98,6.07,2.98,2.82,1.39,7.65,2.65,10.74,2.75,22.98,.73,46.05,1.18,69.16,1.37,3.11,.03,7.91-1.14,10.69-2.61,1.99-1.05,4.01-2.12,6.01-3.18,2.78-1.47,5.96-1.72,7.08-.53,1.11,1.18,.22,4.06-1.98,6.4-1.36,1.45-2.73,2.9-4.07,4.35-2.18,2.33-3.93,6.94-3.9,10.25,.12,12.29,.33,24.58,.61,36.87,.05,2.33,.81,4.31,2.28,5.94,1.46,1.8,3.3,2.73,5.51,2.75,5.07,.04,10.13,.02,15.2-.06,2.06-.03,3.82-.97,5.29-2.78,1.62-1.64,2.48-3.63,2.52-5.95,.43-19.1,.68-38.19,.74-57.27,.02-3.3-2.23-7.25-5.01-8.78-10.12-5.6-20.26-11.26-30.34-16.8-2.75-1.52-7.54-2.72-10.64-2.7-23.1,.25-46.18,.82-69.16,1.59-3.1,.1-7.93,1.36-10.75,2.76-2.02,1.01-4.04,1.99-6.06,2.97-2.81,1.36-5.97,1.62-7.04,.63-1.08-.98-.09-3.47,2.18-5.58,1.42-1.3,2.84-2.61,4.25-3.94,2.29-2.14,4.35-6.32,4.59-9.26,.89-10.87,2.29-21.82,4.21-32.92,.39-2.26-.05-4-1.36-5.2-.9-.95-2.05-1.43-3.48-1.43-.41,0-.84,.04-1.28,.11"/>
        </clipPath>
        <radialGradient id="radial-gradient-5" cx="-1615.99" cy="5668.84" fx="-1615.99" fy="5668.84" r="4.57"
                        gradientTransform="translate(-397075.41 125841.76) rotate(90) scale(77.83 -70.09)"
                        gradientUnits="userSpaceOnUse">
            <stop offset="0" stop-color="#fff"/>
            <stop offset=".48" stop-color="#fff"/>
            <stop offset=".56" stop-color="#b1b4b5"/>
            <stop offset="1" stop-color="#b1b4b5"/>
        </radialGradient>
        <clipPath id="clippath-19">
            <path class="cls-1"
                  d="M219.74,142.29c-2.22,.01-4.03,.95-5.51,2.75-1.47,1.65-2.23,3.62-2.28,5.94-.14,5.72-.24,11.44-.35,17.15-.04,2.5,.68,4.55,2.14,6.14,1.47,1.6,3.35,2.38,5.67,2.36,15.87-.08,31.76,.21,47.62,.83,2.14,.08,3.94-.63,5.35-2.14,1.56-1.48,2.29-3.45,2.17-5.9-.28-5.59-.62-11.2-1.01-16.79-.15-2.27-1.1-4.26-2.8-5.97-1.55-1.86-3.35-2.88-5.4-3.01-13.43-.92-26.88-1.39-40.33-1.39-1.76,0-3.51,0-5.26,.03"/>
        </clipPath>
        <radialGradient id="radial-gradient-6" cx="-1612.41" cy="5666.87" fx="-1612.41" fy="5666.87" r="4.58"
                        gradientTransform="translate(-423339.41 133888.35) rotate(90) scale(83 -74.74)"
                        xlink:href="#radial-gradient-5"/>
        <clipPath id="clippath-20">
            <path class="cls-1"
                  d="M283.75,147.76c-1.28,1.44-1.83,3.28-1.65,5.54,.47,5.56,.86,11.1,1.21,16.64,.09,1.47,.17,2.93,.26,4.39,.11,1.74-.68,3.83-2.13,5.38-.8,.82-1.58,1.65-2.37,2.49-2.07,2.18-3.7,6.62-3.61,9.85,.9,31.53,.25,62.95-1.93,94.61-.17,2.28,.42,4.16,1.73,5.61,1.3,1.65,3.02,2.37,5.24,2.17,5.06-.45,10.11-.96,15.16-1.52,2.05-.24,3.9-1.3,5.54-3.15,1.77-1.71,2.8-3.66,3.07-5.86,3.61-30.51,4.68-60.42,3.19-90.58-.15-3.09-2.19-7.51-4.49-9.85-.03-.02-.05-.05-.07-.07-1.37-1.39-2.9-2.96-4.19-4.28-.88-.9-1.63-1.68-2.11-2.17-1.15-1.19-1.29-3.03-.29-4.08,1-1.05,4.12-.57,6.95,1.04,2.04,1.16,4.07,2.31,6.12,3.46,2.84,1.59,7.64,3.07,10.7,3.32,.24,.02,.47,.04,.71,.06,1.44,.03,34.41,2.89,43.49,3.89,1.57-.04,2.89-.5,3.91-1.42,1.42-1.13,1.95-2.68,1.57-4.71-.86-4.64-2.31-9.7-4.34-14.45-.74-1.91-1.67-3.31-3.58-4.95-1.8-1.76-3.72-2.87-5.74-3.25-22.25-4.26-44.67-7.81-67.12-10.18-.28-.03-.55-.04-.82-.04-1.82,0-3.28,.7-4.38,2.1"/>
        </clipPath>
        <radialGradient id="radial-gradient-7" cx="-1616.46" cy="5669.04" fx="-1616.46" fy="5669.04" r="4.58"
                        gradientTransform="translate(-394504.48 125051.38) rotate(90) scale(77.32 -69.63)"
                        xlink:href="#radial-gradient-5"/>
        <clipPath id="clippath-21">
            <rect class="cls-1" x="109.97" y="78.6" width="229.05" height="157.9"/>
        </clipPath>
        <clipPath id="clippath-22">
            <path class="cls-2"
                  d="M344.58,157.55c0,46.04-54.14,83.36-120.93,83.36s-120.93-37.32-120.93-83.36,54.14-83.37,120.93-83.37,120.93,37.32,120.93,83.37"/>
        </clipPath>
        <linearGradient id="linear-gradient-13" x1="-1431.53" y1="5575.84" x2="-1426.96" y2="5575.84"
                        gradientTransform="translate(203415.17 -51926.18) rotate(-90) scale(36.44 -36.44)"
                        gradientUnits="userSpaceOnUse">
            <stop offset="0" stop-color="#262325"/>
            <stop offset="1" stop-color="#fff"/>
        </linearGradient>
        <mask id="mask-6" x="102.72" y="74.18" width="241.86" height="166.73" maskUnits="userSpaceOnUse">
            <g>
                <rect x="109.97" y="78.6" width="229.05" height="157.89"/>
                <g class="cls-53">
                    <g class="cls-19">
                        <g class="cls-21">
                            <rect class="cls-49" x="102.72" y="74.18" width="241.86" height="166.73"/>
                        </g>
                    </g>
                </g>
            </g>
        </mask>
        <clipPath id="clippath-23">
            <rect class="cls-1" x="109.97" y="78.6" width="229.05" height="157.9"/>
        </clipPath>
    </defs>
    <g class="cls-53">
        <g id="Capa_1" data-name="Capa 1">
            <g>
                <path class="cls-46"
                      d="M43.3,220.4c0-103.97,81.12-188.26,181.2-188.26s181.2,84.28,181.2,188.26-81.12,188.25-181.2,188.25S43.3,324.37,43.3,220.4"/>
                <g class="cls-5">
                    <g class="cls-7">
                        <g class="cls-8">
                            <path class="cls-48"
                                  d="M43.3,220.91c0-103.96,81.13-188.25,181.2-188.25s181.2,84.29,181.2,188.25-81.12,188.25-181.2,188.25S43.3,324.88,43.3,220.91"/>
                        </g>
                    </g>
                </g>
                <g class="cls-58">
                    <g class="cls-9">
                        <path class="cls-47"
                              d="M224.5,70.86c88.14,0,160.23,71.28,165.82,161.38,.22-3.73,.36-7.48,.36-11.27,0-95.34-74.4-172.65-166.18-172.65S58.33,125.63,58.33,220.97c0,3.79,.13,7.54,.35,11.27,5.59-90.1,77.68-161.38,165.82-161.38"/>
                    </g>
                </g>
                <g class="cls-55">
                    <g class="cls-12">
                        <g class="cls-13">
                            <rect class="cls-35" x="71.46" y="222.07" width="306.07" height="174.62"/>
                        </g>
                    </g>
                </g>
                <g class="cls-16">
                    <rect class="cls-3" x="17.42" y="13.92" width="414.15" height="414.16"/>
                </g>
                <g class="cls-25">
                    <polygon class="cls-41"
                             points="592.51 141.47 304.03 589 -143.5 300.52 144.98 -147.01 592.51 141.47"/>
                </g>
                <g class="cls-30">
                    <rect class="cls-39" x="36.26" y="32.76" width="376.49" height="376.49"/>
                </g>
                <g class="cls-24">
                    <g class="cls-54">
                        <rect class="cls-44" x="62.17" y="120.3" width="200.67" height="214.44"
                              transform="translate(-106.55 303.57) rotate(-70.25)"/>
                    </g>
                </g>
                <g class="cls-23">
                    <g class="cls-57">
                        <rect class="cls-43" x="205.06" y="122.41" width="70.5" height="80.61"
                              transform="translate(-20.49 290.01) rotate(-60.12)"/>
                    </g>
                </g>
                <g class="cls-22">
                    <g class="cls-56">
                        <rect class="cls-38" x="227.04" y="144.04" width="183.89" height="157.96"
                              transform="translate(-16.54 420.28) rotate(-65.41)"/>
                    </g>
                </g>
                <g class="cls-26">
                    <rect class="cls-51" x="81.52" y="135.5" width="156.31" height="178.39"
                          transform="translate(-69.99 377.14) rotate(-88.18)"/>
                </g>
                <g class="cls-28">
                    <rect class="cls-52" x="213.79" y="121.05" width="58.68" height="77.69"
                          transform="translate(23.71 351.02) rotate(-74.39)"/>
                </g>
                <g class="cls-27">
                    <rect class="cls-50" x="258.28" y="135.12" width="127.05" height="170.15"
                          transform="translate(-32.13 56.57) rotate(-9.57)"/>
                </g>
                <path class="cls-6"
                      d="M234.92,298.11c-5.05,.09-10.11,.1-15.16,.06-2.53-.02-4.67-1.1-6.36-3.19-1.64-1.82-2.54-4.12-2.6-6.79-.3-12.29-.51-24.58-.65-36.87-.05-3.66,1.81-8.55,4.24-11.14,1.36-1.45,2.71-2.89,4.07-4.34,1.92-2.05,2.38-4.17,1.98-4.6-.39-.42-3.41-.44-5.69,.78-2.01,1.07-4,2.12-6,3.18-2.92,1.54-7.95,2.77-11.22,2.73-23.09-.22-46.15-.7-69.12-1.48-3.25-.11-8.32-1.43-11.28-2.9-2.03-1.02-4.06-2.01-6.08-2.99-2.31-1.14-5.28-1.21-5.67-.84-.39,.36,.12,2.18,2.12,4.03,1.42,1.3,2.83,2.63,4.25,3.96,2.54,2.38,4.71,6.83,4.98,10.09,.89,10.91,2.27,21.89,4.17,33.01,.41,2.43-.13,4.39-1.63,5.79-1.22,1.52-3.04,2.12-5.4,1.72-5.02-.88-10.03-1.81-15.03-2.78-2.51-.48-4.85-1.81-6.92-3.89-1.98-1.83-3.3-3.91-3.84-6.16-13.28-39.64-13.28-73.18,0-111.63,.57-2.37,1.92-4.52,3.95-6.4,2.01-1.87,4.31-3.08,6.79-3.56,5.01-.96,10.02-1.86,15.04-2.74,2.33-.4,4.16,.11,5.47,1.52,1.45,1.35,1.99,3.39,1.55,5.98-1.9,11.12-3.29,22.1-4.17,33-.26,3.26-2.44,7.72-4.97,10.09-1.42,1.32-2.84,2.64-4.25,3.94-1.99,1.84-2.51,3.67-2.12,4.03,.38,.36,3.37,.3,5.67-.82,2.02-.98,4.04-1.98,6.07-2.99,2.96-1.47,8.02-2.8,11.28-2.91,22.97-.82,46.03-1.44,69.12-1.7,3.28-.03,8.3,1.23,11.2,2.83,10.07,5.54,20.22,11.2,30.33,16.8,3.18,1.76,5.67,6.12,5.65,9.91-.07,19.07-.34,38.16-.8,57.24-.07,2.69-1.06,5-2.93,6.91-1.61,2.01-3.66,3.1-6.04,3.13"/>
                <path class="cls-6"
                      d="M267.07,178.72c-15.88-.6-31.78-.88-47.67-.8-2.64,.02-4.83-.9-6.51-2.74-1.68-1.82-2.5-4.19-2.45-7.03,.1-5.71,.22-11.43,.36-17.15,.07-2.65,.97-4.97,2.65-6.85,1.66-2.04,3.78-3.12,6.31-3.14,15.17-.14,30.34,.34,45.5,1.39,2.37,.17,4.47,1.34,6.26,3.5,1.86,1.87,2.97,4.2,3.16,6.83,.39,5.6,.74,11.19,1.03,16.76,.15,2.81-.7,5.09-2.52,6.81-1.57,1.68-3.66,2.52-6.12,2.43"/>
                <path class="cls-6"
                      d="M295.52,294.14c-5.04,.57-10.08,1.09-15.13,1.55-2.52,.23-4.55-.62-6.03-2.51-1.46-1.63-2.14-3.82-1.97-6.43,2.12-31.69,2.75-63.16,1.88-94.72-.1-3.59,1.63-8.32,3.92-10.74,.8-.83,1.57-1.66,2.37-2.48,1.21-1.28,1.92-3.05,1.83-4.53-.38-7.01-.86-14.02-1.43-21.05-.2-2.6,.45-4.75,1.91-6.41,1.42-1.79,3.43-2.6,5.96-2.32,22.41,2.39,44.75,5.99,66.97,10.3,2.35,.46,4.58,1.75,6.66,3.78,2.11,1.82,3.21,3.31,4.06,5.52,2.22,5.19,3.5,9.96,4.36,14.59,.43,2.31-.19,4.12-1.82,5.41-1.11,1.01-2.64,1.57-4.5,1.62-9.25-.97-42.26-3.76-43.7-3.79-.24-.02-.47-.04-.72-.06-3.2-.25-8.25-1.79-11.24-3.47-2.04-1.14-4.07-2.29-6.11-3.45-2.33-1.31-5.25-1.53-5.61-1.15-.27,.29-.41,.7-.38,1.14,.04,.45,.22,.88,.55,1.21,2.08,2.14,4.15,4.25,6.24,6.37,2.7,2.75,4.88,7.43,5.04,10.85,1.51,30.09,.43,59.94-3.23,90.4-.3,2.53-1.51,4.81-3.57,6.79-1.8,2.05-3.96,3.28-6.31,3.56"/>
                <g class="cls-31">
                    <rect class="cls-33" x="76.33" y="152.18" width="167.18" height="144.75"/>
                </g>
                <g class="cls-29">
                    <rect class="cls-32" x="211.55" y="142.26" width="63.11" height="35.28"/>
                </g>
                <g class="cls-18">
                    <rect class="cls-36" x="273.36" y="145.66" width="96.76" height="148.97"/>
                </g>
                <g class="cls-59">
                    <g class="cls-20">
                        <path class="cls-47"
                              d="M339.02,157.55c0,43.6-51.28,78.94-114.53,78.94s-114.52-35.34-114.52-78.94,51.28-78.95,114.52-78.95,114.53,35.34,114.53,78.95"/>
                    </g>
                </g>
            </g>
        </g>
    </g>
</svg>